<?xml version="1.0" encoding="UTF-8"?>
<svg xmlns="http://www.w3.org/2000/svg" width="960" height="1160" viewBox="0 0 960 1160">
<defs>
  <marker id="ah" markerWidth="10" markerHeight="7" refX="9" refY="3.5" orient="auto"><polygon points="0,0 10,3.5 0,7" fill="#999"/></marker>
  <filter id="sh"><feDropShadow dx="1" dy="2" stdDeviation="2" flood-opacity="0.08"/></filter>
</defs>
<rect width="100%" height="100%" fill="#faf6ed"/>
<rect x="10" y="165" width="210" height="188" rx="10" fill="#f5efe0" stroke="#c9a84c" stroke-width="1.5" filter="url(#sh)"/>
<text x="115" y="187" text-anchor="middle" fill="#8b6914" font-size="14" font-weight="700" font-family="Microsoft YaHei,PingFang SC,SimHei,sans-serif">萝温高级模型</text>
<text x="20" y="209" fill="#666" font-size="11" font-weight="600" font-family="Microsoft YaHei,PingFang SC,SimHei,sans-serif">固定能力值：</text>
<text x="24" y="225" fill="#333" font-size="12" font-family="Microsoft YaHei,PingFang SC,SimHei,sans-serif">魔法值+15</text>
<text x="20" y="245" fill="#666" font-size="11" font-weight="600" font-family="Microsoft YaHei,PingFang SC,SimHei,sans-serif">强化能力值：</text>
<text x="24" y="263" fill="#333" font-size="12" font-family="Microsoft YaHei,PingFang SC,SimHei,sans-serif">智力(0/7)</text>
<text x="24" y="281" fill="#333" font-size="12" font-family="Microsoft YaHei,PingFang SC,SimHei,sans-serif">意志(0/7)</text>
<text x="24" y="299" fill="#333" font-size="12" font-family="Microsoft YaHei,PingFang SC,SimHei,sans-serif">魔法攻击力(0/4)</text>
<text x="24" y="317" fill="#333" font-size="12" font-family="Microsoft YaHei,PingFang SC,SimHei,sans-serif">额外伤害(0/1)</text>
<text x="24" y="335" fill="#333" font-size="12" font-family="Microsoft YaHei,PingFang SC,SimHei,sans-serif">移动速度(0/1)</text>
<rect x="490" y="17" width="80" height="36" rx="18" fill="#fef3cd" stroke="#d4a827" stroke-width="1.5" filter="url(#sh)"/>
<text x="530" y="40" text-anchor="middle" fill="#8b6914" font-size="15" font-weight="600" font-family="Microsoft YaHei,PingFang SC,SimHei,sans-serif">开始</text>
<polyline points="530,53 530,83" fill="none" stroke="#999" stroke-width="1.5" marker-end="url(#ah)"/>
<rect x="357.5" y="83" width="345" height="44" rx="8" fill="#d4e6f1" stroke="#5b9bd5" stroke-width="1.5" filter="url(#sh)"/>
<text x="530" y="110" text-anchor="middle" fill="#333" font-size="13" font-family="Microsoft YaHei,PingFang SC,SimHei,sans-serif">使用智力/意志普通药水强化至5次</text>
<polyline points="530,127 530,170" fill="none" stroke="#999" stroke-width="1.5" marker-end="url(#ah)"/>
<rect x="357.5" y="170" width="345" height="44" rx="8" fill="#d4e6f1" stroke="#5b9bd5" stroke-width="1.5" filter="url(#sh)"/>
<text x="530" y="197" text-anchor="middle" fill="#333" font-size="13" font-family="Microsoft YaHei,PingFang SC,SimHei,sans-serif">使用魔法攻击力进阶药水强化第6次</text>
<text x="586.5" y="166" text-anchor="start" fill="#888" font-size="10" font-weight="600" font-family="Microsoft YaHei,PingFang SC,SimHei,sans-serif">成功率 40%</text>
<polyline points="530,214 530,253" fill="none" stroke="#999" stroke-width="1.5" marker-end="url(#ah)"/>
<polygon points="530,253 665,292 530,331 395,292" fill="#fce4e4" stroke="#cc6666" stroke-width="1.5" filter="url(#sh)"/>
<text x="530" y="296" text-anchor="middle" fill="#b33" font-size="12" font-weight="600" font-family="Microsoft YaHei,PingFang SC,SimHei,sans-serif">是否成功并且为魔攻2</text>
<polyline points="530,331 530,345 400,345 400,388" fill="none" stroke="#999" stroke-width="1.5" marker-end="url(#ah)"/>
<text x="450" y="343" text-anchor="start" fill="#c33" font-size="12" font-weight="600" font-family="Microsoft YaHei,PingFang SC,SimHei,sans-serif">是 20%</text>
<polyline points="665,292 810,292 810,356" fill="none" stroke="#999" stroke-width="1.5" marker-end="url(#ah)"/>
<text x="670" y="284" text-anchor="start" fill="#c33" font-size="12" font-weight="600" font-family="Microsoft YaHei,PingFang SC,SimHei,sans-serif">否 80%</text>
<rect x="227.5" y="388" width="345" height="44" rx="8" fill="#d4e6f1" stroke="#5b9bd5" stroke-width="1.5" filter="url(#sh)"/>
<text x="400" y="415" text-anchor="middle" fill="#333" font-size="13" font-family="Microsoft YaHei,PingFang SC,SimHei,sans-serif">使用魔法攻击力进阶药水强化第7次</text>
<text x="456.5" y="384" text-anchor="start" fill="#888" font-size="10" font-weight="600" font-family="Microsoft YaHei,PingFang SC,SimHei,sans-serif">成功率 40%</text>
<polyline points="400,432 400,466" fill="none" stroke="#999" stroke-width="1.5" marker-end="url(#ah)"/>
<polygon points="400,466 535,505 400,544 265,505" fill="#fce4e4" stroke="#cc6666" stroke-width="1.5" filter="url(#sh)"/>
<text x="400" y="509" text-anchor="middle" fill="#b33" font-size="12" font-weight="600" font-family="Microsoft YaHei,PingFang SC,SimHei,sans-serif">是否成功并且为魔攻2</text>
<polyline points="400,544 400,558 310,558 310,603" fill="none" stroke="#999" stroke-width="1.5" marker-end="url(#ah)"/>
<text x="315" y="556" text-anchor="start" fill="#c33" font-size="12" font-weight="600" font-family="Microsoft YaHei,PingFang SC,SimHei,sans-serif">是 20%</text>
<polyline points="535,505 680,505 680,395" fill="none" stroke="#999" stroke-width="1.5" marker-end="url(#ah)"/>
<text x="540" y="497" text-anchor="start" fill="#c33" font-size="12" font-weight="600" font-family="Microsoft YaHei,PingFang SC,SimHei,sans-serif">否 80%</text>
<polygon points="810,356 940,395 810,434 680,395" fill="#fce4e4" stroke="#cc6666" stroke-width="1.5" filter="url(#sh)"/>
<text x="810" y="391.5" text-anchor="middle" fill="#b33" font-size="12" font-weight="600" font-family="Microsoft YaHei,PingFang SC,SimHei,sans-serif">是否放弃</text>
<text x="810" y="406.5" text-anchor="middle" fill="#b33" font-size="12" font-weight="600" font-family="Microsoft YaHei,PingFang SC,SimHei,sans-serif">（可能会浪费基础药水）</text>
<polyline points="940,395 965,395" fill="none" stroke="#999" stroke-width="1.5" marker-end="url(#ah)"/>
<text x="930" y="385" text-anchor="start" fill="#c33" font-size="12" font-weight="600" font-family="Microsoft YaHei,PingFang SC,SimHei,sans-serif">是</text>
<polyline points="810,434 810,451 730,451 730,521" fill="none" stroke="#999" stroke-width="1.5" marker-end="url(#ah)"/>
<text x="815" y="449" text-anchor="start" fill="#c33" font-size="12" font-weight="600" font-family="Microsoft YaHei,PingFang SC,SimHei,sans-serif">否</text>
<rect x="145" y="603" width="330" height="54" rx="8" fill="#d4e6f1" stroke="#5b9bd5" stroke-width="1.5" filter="url(#sh)"/>
<text x="310" y="626.5" text-anchor="middle" fill="#333" font-size="13" font-family="Microsoft YaHei,PingFang SC,SimHei,sans-serif">使用智力/意志普通药水或者进阶</text>
<text x="310" y="643.5" text-anchor="middle" fill="#333" font-size="13" font-family="Microsoft YaHei,PingFang SC,SimHei,sans-serif">药水强化到第8次</text>
<polyline points="310,657 310,698" fill="none" stroke="#999" stroke-width="1.5" marker-end="url(#ah)"/>
<rect x="565" y="521" width="330" height="54" rx="8" fill="#d4e6f1" stroke="#5b9bd5" stroke-width="1.5" filter="url(#sh)"/>
<text x="730" y="544.5" text-anchor="middle" fill="#333" font-size="13" font-family="Microsoft YaHei,PingFang SC,SimHei,sans-serif">使用智力/意志/魔攻普通药水或者</text>
<text x="730" y="561.5" text-anchor="middle" fill="#333" font-size="13" font-family="Microsoft YaHei,PingFang SC,SimHei,sans-serif">进阶药水强化到第8次</text>
<polyline points="730,575 730,626" fill="none" stroke="#999" stroke-width="1.5" marker-end="url(#ah)"/>
<rect x="142.5" y="698" width="335" height="44" rx="8" fill="#d4e6f1" stroke="#5b9bd5" stroke-width="1.5" filter="url(#sh)"/>
<text x="310" y="725" text-anchor="middle" fill="#333" font-size="13" font-family="Microsoft YaHei,PingFang SC,SimHei,sans-serif">使用魔法攻击力中级药水强化第9次</text>
<text x="362" y="694" text-anchor="start" fill="#888" font-size="10" font-weight="600" font-family="Microsoft YaHei,PingFang SC,SimHei,sans-serif">成功率 25%</text>
<polyline points="310,742 310,786" fill="none" stroke="#999" stroke-width="1.5" marker-end="url(#ah)"/>
<rect x="565" y="626" width="330" height="44" rx="8" fill="#d4e6f1" stroke="#5b9bd5" stroke-width="1.5" filter="url(#sh)"/>
<text x="730" y="653" text-anchor="middle" fill="#333" font-size="13" font-family="Microsoft YaHei,PingFang SC,SimHei,sans-serif">使用额外伤害中级药水强化第9次</text>
<text x="779" y="622" text-anchor="start" fill="#888" font-size="10" font-weight="600" font-family="Microsoft YaHei,PingFang SC,SimHei,sans-serif">成功率 10%</text>
<polygon points="310,786 445,825 310,864 175,825" fill="#fce4e4" stroke="#cc6666" stroke-width="1.5" filter="url(#sh)"/>
<text x="310" y="829" text-anchor="middle" fill="#b33" font-size="12" font-weight="600" font-family="Microsoft YaHei,PingFang SC,SimHei,sans-serif">是否成功并且为魔攻3</text>
<polyline points="310,864 310,883 430,883 430,926" fill="none" stroke="#999" stroke-width="1.5" marker-end="url(#ah)"/>
<text x="320" y="881" text-anchor="start" fill="#c33" font-size="12" font-weight="600" font-family="Microsoft YaHei,PingFang SC,SimHei,sans-serif">是 8.3%</text>
<polyline points="175,825 130,825 130,926" fill="none" stroke="#999" stroke-width="1.5" marker-end="url(#ah)"/>
<text x="178" y="815" text-anchor="end" fill="#c33" font-size="12" font-weight="600" font-family="Microsoft YaHei,PingFang SC,SimHei,sans-serif">否 91.7%</text>
<polyline points="730,670 730,926" fill="none" stroke="#999" stroke-width="1.5" marker-end="url(#ah)"/>
<rect x="5" y="926" width="250" height="44" rx="8" fill="#d4e6f1" stroke="#5b9bd5" stroke-width="1.5" filter="url(#sh)"/>
<text x="130" y="953" text-anchor="middle" fill="#333" font-size="13" font-family="Microsoft YaHei,PingFang SC,SimHei,sans-serif">使用额外伤害中级药水强化第10次</text>
<text x="139" y="922" text-anchor="start" fill="#888" font-size="10" font-weight="600" font-family="Microsoft YaHei,PingFang SC,SimHei,sans-serif">成功率 10%</text>
<rect x="280" y="926" width="300" height="44" rx="8" fill="#d4e6f1" stroke="#5b9bd5" stroke-width="1.5" filter="url(#sh)"/>
<text x="430" y="953" text-anchor="middle" fill="#333" font-size="13" font-family="Microsoft YaHei,PingFang SC,SimHei,sans-serif">使用魔法攻击力中级药水强化第10次</text>
<text x="464" y="922" text-anchor="start" fill="#888" font-size="10" font-weight="600" font-family="Microsoft YaHei,PingFang SC,SimHei,sans-serif">成功率 25%</text>
<rect x="580" y="926" width="300" height="44" rx="8" fill="#d4e6f1" stroke="#5b9bd5" stroke-width="1.5" filter="url(#sh)"/>
<text x="730" y="953" text-anchor="middle" fill="#333" font-size="13" font-family="Microsoft YaHei,PingFang SC,SimHei,sans-serif">使用移动速度中级药水强化第10次</text>
<text x="764" y="922" text-anchor="start" fill="#888" font-size="10" font-weight="600" font-family="Microsoft YaHei,PingFang SC,SimHei,sans-serif">成功率 10%</text>
<polyline points="130,970 130,1065 430,1065" fill="none" stroke="#999" stroke-width="1.5" marker-end="url(#ah)"/>
<polyline points="430,970 430,1065" fill="none" stroke="#999" stroke-width="1.5" marker-end="url(#ah)"/>
<polyline points="730,970 730,1065 430,1065" fill="none" stroke="#999" stroke-width="1.5" marker-end="url(#ah)"/>
<rect x="390" y="1047" width="80" height="36" rx="18" fill="#fef3cd" stroke="#d4a827" stroke-width="1.5" filter="url(#sh)"/>
<text x="430" y="1070" text-anchor="middle" fill="#8b6914" font-size="15" font-weight="600" font-family="Microsoft YaHei,PingFang SC,SimHei,sans-serif">结束</text>
</svg>