<?xml version="1.0" encoding="UTF-8"?>
<svg xmlns="http://www.w3.org/2000/svg" width="960" height="1280" viewBox="0 0 960 1280">
<defs>
  <marker id="ah" markerWidth="10" markerHeight="7" refX="9" refY="3.5" orient="auto"><polygon points="0,0 10,3.5 0,7" fill="#999"/></marker>
  <filter id="sh"><feDropShadow dx="1" dy="2" stdDeviation="2" flood-opacity="0.08"/></filter>
</defs>
<rect width="100%" height="100%" fill="#faf6ed"/>
<rect x="730" y="170" width="215" height="188" rx="10" fill="#f5efe0" stroke="#c9a84c" stroke-width="1.5" filter="url(#sh)"/>
<text x="837.5" y="192" text-anchor="middle" fill="#8b6914" font-size="14" font-weight="700" font-family="Microsoft YaHei,PingFang SC,SimHei,sans-serif">罗希内高级模型</text>
<text x="740" y="214" fill="#666" font-size="11" font-weight="600" font-family="Microsoft YaHei,PingFang SC,SimHei,sans-serif">固定能力值：</text>
<text x="744" y="230" fill="#333" font-size="12" font-family="Microsoft YaHei,PingFang SC,SimHei,sans-serif">体力值+15</text>
<text x="740" y="250" fill="#666" font-size="11" font-weight="600" font-family="Microsoft YaHei,PingFang SC,SimHei,sans-serif">强化能力值：</text>
<text x="744" y="268" fill="#333" font-size="12" font-family="Microsoft YaHei,PingFang SC,SimHei,sans-serif">力量(0/7)</text>
<text x="744" y="286" fill="#333" font-size="12" font-family="Microsoft YaHei,PingFang SC,SimHei,sans-serif">敏捷(0/7)</text>
<text x="744" y="304" fill="#333" font-size="12" font-family="Microsoft YaHei,PingFang SC,SimHei,sans-serif">最大伤害(0/4)</text>
<text x="744" y="322" fill="#333" font-size="12" font-family="Microsoft YaHei,PingFang SC,SimHei,sans-serif">暴击伤害(0/2)</text>
<text x="744" y="340" fill="#333" font-size="12" font-family="Microsoft YaHei,PingFang SC,SimHei,sans-serif">移动速度(0/1)</text>
<rect x="330" y="17" width="80" height="36" rx="18" fill="#fef3cd" stroke="#d4a827" stroke-width="1.5" filter="url(#sh)"/>
<text x="370" y="40" text-anchor="middle" fill="#8b6914" font-size="15" font-weight="600" font-family="Microsoft YaHei,PingFang SC,SimHei,sans-serif">开始</text>
<polyline points="370,53 370,83" fill="none" stroke="#999" stroke-width="1.5" marker-end="url(#ah)"/>
<rect x="210" y="83" width="320" height="44" rx="8" fill="#d4e6f1" stroke="#5b9bd5" stroke-width="1.5" filter="url(#sh)"/>
<text x="370" y="110" text-anchor="middle" fill="#333" font-size="13" font-family="Microsoft YaHei,PingFang SC,SimHei,sans-serif">使用力量/敏捷普通药水强化至5次</text>
<polyline points="370,127 370,170" fill="none" stroke="#999" stroke-width="1.5" marker-end="url(#ah)"/>
<rect x="210" y="170" width="320" height="44" rx="8" fill="#d4e6f1" stroke="#5b9bd5" stroke-width="1.5" filter="url(#sh)"/>
<text x="370" y="197" text-anchor="middle" fill="#333" font-size="13" font-family="Microsoft YaHei,PingFang SC,SimHei,sans-serif">使用最大伤害进阶药水强化第6次</text>
<text x="414" y="166" text-anchor="start" fill="#888" font-size="10" font-weight="600" font-family="Microsoft YaHei,PingFang SC,SimHei,sans-serif">成功率 40%</text>
<polyline points="370,214 370,253" fill="none" stroke="#999" stroke-width="1.5" marker-end="url(#ah)"/>
<polygon points="370,253 500,292 370,331 240,292" fill="#fce4e4" stroke="#cc6666" stroke-width="1.5" filter="url(#sh)"/>
<text x="370" y="296" text-anchor="middle" fill="#b33" font-size="12" font-weight="600" font-family="Microsoft YaHei,PingFang SC,SimHei,sans-serif">是否成功并且为大伤2</text>
<polyline points="370,331 370,345 280,345 280,388" fill="none" stroke="#999" stroke-width="1.5" marker-end="url(#ah)"/>
<text x="295" y="343" text-anchor="start" fill="#c33" font-size="12" font-weight="600" font-family="Microsoft YaHei,PingFang SC,SimHei,sans-serif">是 20%</text>
<polyline points="500,292 660,292 660,356" fill="none" stroke="#999" stroke-width="1.5" marker-end="url(#ah)"/>
<text x="505" y="284" text-anchor="start" fill="#c33" font-size="12" font-weight="600" font-family="Microsoft YaHei,PingFang SC,SimHei,sans-serif">否 80%</text>
<rect x="120" y="388" width="320" height="44" rx="8" fill="#d4e6f1" stroke="#5b9bd5" stroke-width="1.5" filter="url(#sh)"/>
<text x="280" y="415" text-anchor="middle" fill="#333" font-size="13" font-family="Microsoft YaHei,PingFang SC,SimHei,sans-serif">使用最大伤害进阶药水强化第7次</text>
<text x="324" y="384" text-anchor="start" fill="#888" font-size="10" font-weight="600" font-family="Microsoft YaHei,PingFang SC,SimHei,sans-serif">成功率 40%</text>
<polyline points="280,432 280,466" fill="none" stroke="#999" stroke-width="1.5" marker-end="url(#ah)"/>
<polygon points="280,466 410,505 280,544 150,505" fill="#fce4e4" stroke="#cc6666" stroke-width="1.5" filter="url(#sh)"/>
<text x="280" y="509" text-anchor="middle" fill="#b33" font-size="12" font-weight="600" font-family="Microsoft YaHei,PingFang SC,SimHei,sans-serif">是否成功并且为大伤2</text>
<polyline points="280,544 280,558 210,558 210,603" fill="none" stroke="#999" stroke-width="1.5" marker-end="url(#ah)"/>
<text x="200" y="556" text-anchor="start" fill="#c33" font-size="12" font-weight="600" font-family="Microsoft YaHei,PingFang SC,SimHei,sans-serif">是 20%</text>
<polyline points="410,505 530,505 530,395" fill="none" stroke="#999" stroke-width="1.5" marker-end="url(#ah)"/>
<text x="415" y="497" text-anchor="start" fill="#c33" font-size="12" font-weight="600" font-family="Microsoft YaHei,PingFang SC,SimHei,sans-serif">否 80%</text>
<polygon points="660,356 780,395 660,434 540,395" fill="#fce4e4" stroke="#cc6666" stroke-width="1.5" filter="url(#sh)"/>
<text x="660" y="391.5" text-anchor="middle" fill="#b33" font-size="12" font-weight="600" font-family="Microsoft YaHei,PingFang SC,SimHei,sans-serif">是否放弃</text>
<text x="660" y="406.5" text-anchor="middle" fill="#b33" font-size="12" font-weight="600" font-family="Microsoft YaHei,PingFang SC,SimHei,sans-serif">（可能会浪费基础药水）</text>
<polyline points="780,395 802,395" fill="none" stroke="#999" stroke-width="1.5" marker-end="url(#ah)"/>
<text x="768" y="385" text-anchor="start" fill="#c33" font-size="12" font-weight="600" font-family="Microsoft YaHei,PingFang SC,SimHei,sans-serif">是</text>
<polyline points="660,434 660,451 560,451 560,521" fill="none" stroke="#999" stroke-width="1.5" marker-end="url(#ah)"/>
<text x="665" y="449" text-anchor="start" fill="#c33" font-size="12" font-weight="600" font-family="Microsoft YaHei,PingFang SC,SimHei,sans-serif">否</text>
<rect x="55" y="603" width="310" height="54" rx="8" fill="#d4e6f1" stroke="#5b9bd5" stroke-width="1.5" filter="url(#sh)"/>
<text x="210" y="626.5" text-anchor="middle" fill="#333" font-size="13" font-family="Microsoft YaHei,PingFang SC,SimHei,sans-serif">使用力量/敏捷普通药水或者进阶</text>
<text x="210" y="643.5" text-anchor="middle" fill="#333" font-size="13" font-family="Microsoft YaHei,PingFang SC,SimHei,sans-serif">药水强化到第8次</text>
<polyline points="210,657 210,698" fill="none" stroke="#999" stroke-width="1.5" marker-end="url(#ah)"/>
<rect x="405" y="521" width="310" height="54" rx="8" fill="#d4e6f1" stroke="#5b9bd5" stroke-width="1.5" filter="url(#sh)"/>
<text x="560" y="544.5" text-anchor="middle" fill="#333" font-size="13" font-family="Microsoft YaHei,PingFang SC,SimHei,sans-serif">使用力量/敏捷/大伤普通药水或者</text>
<text x="560" y="561.5" text-anchor="middle" fill="#333" font-size="13" font-family="Microsoft YaHei,PingFang SC,SimHei,sans-serif">进阶药水强化到第8次</text>
<polyline points="560,575 560,626" fill="none" stroke="#999" stroke-width="1.5" marker-end="url(#ah)"/>
<rect x="55" y="698" width="310" height="44" rx="8" fill="#d4e6f1" stroke="#5b9bd5" stroke-width="1.5" filter="url(#sh)"/>
<text x="210" y="725" text-anchor="middle" fill="#333" font-size="13" font-family="Microsoft YaHei,PingFang SC,SimHei,sans-serif">使用最大伤害中级药水强化第9次</text>
<text x="249" y="694" text-anchor="start" fill="#888" font-size="10" font-weight="600" font-family="Microsoft YaHei,PingFang SC,SimHei,sans-serif">成功率 25%</text>
<polyline points="210,742 210,791" fill="none" stroke="#999" stroke-width="1.5" marker-end="url(#ah)"/>
<rect x="405" y="626" width="310" height="44" rx="8" fill="#d4e6f1" stroke="#5b9bd5" stroke-width="1.5" filter="url(#sh)"/>
<text x="560" y="653" text-anchor="middle" fill="#333" font-size="13" font-family="Microsoft YaHei,PingFang SC,SimHei,sans-serif">使用暴击伤害中级药水强化第9次</text>
<text x="599" y="622" text-anchor="start" fill="#888" font-size="10" font-weight="600" font-family="Microsoft YaHei,PingFang SC,SimHei,sans-serif">成功率 15%</text>
<polyline points="560,670 560,721" fill="none" stroke="#999" stroke-width="1.5" marker-end="url(#ah)"/>
<polygon points="210,791 340,830 210,869 80,830" fill="#fce4e4" stroke="#cc6666" stroke-width="1.5" filter="url(#sh)"/>
<text x="210" y="834" text-anchor="middle" fill="#b33" font-size="12" font-weight="600" font-family="Microsoft YaHei,PingFang SC,SimHei,sans-serif">是否成功并且为大伤3</text>
<polyline points="210,869 210,888 100,888 100,938" fill="none" stroke="#999" stroke-width="1.5" marker-end="url(#ah)"/>
<text x="220" y="886" text-anchor="start" fill="#c33" font-size="12" font-weight="600" font-family="Microsoft YaHei,PingFang SC,SimHei,sans-serif">是 8.3%</text>
<polyline points="340,830 350,830 350,938" fill="none" stroke="#999" stroke-width="1.5" marker-end="url(#ah)"/>
<text x="345" y="820" text-anchor="start" fill="#c33" font-size="12" font-weight="600" font-family="Microsoft YaHei,PingFang SC,SimHei,sans-serif">否 91.7%</text>
<polygon points="560,721 690,760 560,799 430,760" fill="#fce4e4" stroke="#cc6666" stroke-width="1.5" filter="url(#sh)"/>
<text x="560" y="764" text-anchor="middle" fill="#b33" font-size="12" font-weight="600" font-family="Microsoft YaHei,PingFang SC,SimHei,sans-serif">是否成功并且为暴伤3</text>
<polyline points="560,799 560,816 600,816 600,938" fill="none" stroke="#999" stroke-width="1.5" marker-end="url(#ah)"/>
<text x="570" y="814" text-anchor="start" fill="#c33" font-size="12" font-weight="600" font-family="Microsoft YaHei,PingFang SC,SimHei,sans-serif">是 5%</text>
<polyline points="430,760 370,760 370,938" fill="none" stroke="#999" stroke-width="1.5" marker-end="url(#ah)"/>
<text x="432" y="750" text-anchor="end" fill="#c33" font-size="12" font-weight="600" font-family="Microsoft YaHei,PingFang SC,SimHei,sans-serif">否 95%</text>
<rect x="5" y="938" width="190" height="44" rx="8" fill="#d4e6f1" stroke="#5b9bd5" stroke-width="1.5" filter="url(#sh)"/>
<text x="100" y="956.5" text-anchor="middle" fill="#333" font-size="13" font-family="Microsoft YaHei,PingFang SC,SimHei,sans-serif">使用最大伤害中级药水</text>
<text x="100" y="973.5" text-anchor="middle" fill="#333" font-size="13" font-family="Microsoft YaHei,PingFang SC,SimHei,sans-serif">强化第10次</text>
<text x="119" y="934" text-anchor="start" fill="#888" font-size="10" font-weight="600" font-family="Microsoft YaHei,PingFang SC,SimHei,sans-serif">25%</text>
<rect x="230" y="938" width="240" height="44" rx="8" fill="#d4e6f1" stroke="#5b9bd5" stroke-width="1.5" filter="url(#sh)"/>
<text x="350" y="965" text-anchor="middle" fill="#333" font-size="13" font-family="Microsoft YaHei,PingFang SC,SimHei,sans-serif">使用移动速度中级药水强化第10次</text>
<text x="394" y="934" text-anchor="start" fill="#888" font-size="10" font-weight="600" font-family="Microsoft YaHei,PingFang SC,SimHei,sans-serif">10%</text>
<rect x="495" y="938" width="210" height="44" rx="8" fill="#d4e6f1" stroke="#5b9bd5" stroke-width="1.5" filter="url(#sh)"/>
<text x="600" y="956.5" text-anchor="middle" fill="#333" font-size="13" font-family="Microsoft YaHei,PingFang SC,SimHei,sans-serif">使用暴击伤害中级药水</text>
<text x="600" y="973.5" text-anchor="middle" fill="#333" font-size="13" font-family="Microsoft YaHei,PingFang SC,SimHei,sans-serif">强化第10次</text>
<text x="629" y="934" text-anchor="start" fill="#888" font-size="10" font-weight="600" font-family="Microsoft YaHei,PingFang SC,SimHei,sans-serif">15%</text>
<polyline points="100,982 100,1080 350,1080" fill="none" stroke="#999" stroke-width="1.5" marker-end="url(#ah)"/>
<polyline points="350,982 350,1080" fill="none" stroke="#999" stroke-width="1.5" marker-end="url(#ah)"/>
<polyline points="600,982 600,1080 350,1080" fill="none" stroke="#999" stroke-width="1.5" marker-end="url(#ah)"/>
<rect x="310" y="1062" width="80" height="36" rx="18" fill="#fef3cd" stroke="#d4a827" stroke-width="1.5" filter="url(#sh)"/>
<text x="350" y="1085" text-anchor="middle" fill="#8b6914" font-size="15" font-weight="600" font-family="Microsoft YaHei,PingFang SC,SimHei,sans-serif">结束</text>
</svg>